<svg xmlns="http://www.w3.org/2000/svg" xmlns:xlink="http://www.w3.org/1999/xlink" id="Layer_1" x="0px" y="0px" viewBox="0 0 669.7 490.7" style="enable-background:new 0 0 669.7 490.7;" xml:space="preserve">
<style type="text/css">
	.st0{opacity:0.24;fill:#E56D39;enable-background:new    ;}
	.st1{fill:url(#SVGID_1_);}
	.st2{fill:#E56D39;}
	.st3{fill:url(#SVGID_00000047039045995392213130000015961993195136332422_);}
	.st4{fill:url(#SVGID_00000151502563364523744410000007949811806160245942_);}
	.st5{fill:#F5E0CD;}
	.st6{fill:#EFD2BB;}
	.st7{fill:#FFFFFF;}
	.st8{fill:none;stroke:#000000;stroke-width:1.43;stroke-miterlimit:10;}
	.st9{fill:#606161;}
	.st10{fill:url(#SVGID_00000034075728102426619950000013734510048792427946_);}
	.st11{fill:url(#SVGID_00000121985412614554516500000014909172488897909911_);}
	.st12{fill:url(#SVGID_00000010298285377797605890000017621126626323999926_);}
	.st13{fill:url(#SVGID_00000126319686385566660350000012671312335919835823_);}
	.st14{fill:url(#SVGID_00000182516969183852961800000004288539030114738571_);}
	.st15{fill:url(#SVGID_00000089558974878024649790000000474941524443364768_);}
	.st16{fill:url(#SVGID_00000070840869289480319650000014400707423633177743_);}
	.st17{fill:url(#SVGID_00000166668050462289106500000001098588165392835470_);}
</style>
<path class="st0" d="M217,18.6c-21.4,9.6-41.9,22.3-57.1,40.2c-20.9,24.8-30.3,57.9-52.3,81.8c-28.1,30.5-74.3,43-94.7,79.1  C5.2,233.4,2,249.4,0.7,265.1C-4.4,325,18.8,390.6,70.4,421.4c20.5,12.3,44.1,18.5,64.8,30.4c18.4,10.5,34.4,25.4,54.2,33  c34.9,13.4,74.5,1.7,107.9-15.2s64.9-38.9,101.3-47.6c47-11.2,96,1.3,144.3,1.9s103.9-17.3,120.1-62.8c5.1-14.3,5.6-29.7,6.1-44.8  c0.9-28.4,1.6-57.7-9-84c-14.4-36.1-48.5-62.3-60.1-99.5c-6.1-19.6-5.7-41.6-16.4-59.1c-14.1-23.1-43.4-31.7-70.3-34  C470.6,36.1,424.8,43,387,22.6C332.6-6.8,273.5-6.9,217,18.6z"></path>
<linearGradient id="SVGID_1_" gradientUnits="userSpaceOnUse" x1="209.2959" y1="135.0785" x2="442.1559" y2="135.0785" gradientTransform="matrix(1 0 0 -1 1.78 473.7)">
	<stop offset="0" style="stop-color:#010101;stop-opacity:0"></stop>
	<stop offset="0.95" style="stop-color:#010101"></stop>
</linearGradient>
<path class="st1" d="M423.9,337.7c0-0.7,0-1.3-0.2-2l0,0l20.2-3.2l-5.4-44l-26.5,4.1c-5-8.9-11.5-16.8-19.2-23.5h0l13.6-20.1v-11.4  l-35.7-14.8l-17.5,25.7c-6.8-1.7-13.8-2.5-20.9-2.5c-0.6,0-1.1,0-1.7,0.2l-7.9-27.8l-43-0.8v11.4l8,28.6  c-9.9,5.5-18.8,12.7-26.1,21.4l-22.5-14.6l-25.4,24.9v11.4l28.8,18.8c-1.2,6-1.8,12.2-1.8,18.3c-0.1,2.1,0.1,4.3,0.3,6.4l-29.8-4  v11.4l9,43.4l34.5-8.4l0,0c3.7,6.1,8.2,11.7,13.2,16.7l-15.4,17v11.4l38.2,22.5l15.6-28.5l0,0c8,2.4,16.3,3.7,24.6,3.9l0,0  l10.9,30.2l42.2-13.5v-11.4l-9.6-15.6l0,0c7.7-4,14.8-9,21-15l20.8,13l24.9-36.6v-11.4l-21.9-2.5  C422.2,357.4,423.9,347.6,423.9,337.7z M332.4,417.6c-44.1,0.2-80.1-35.4-80.3-79.5c-0.2-44.1,35.4-80.1,79.5-80.3  c44.1-0.2,80.1,35.4,80.3,79.5c0,0.1,0,0.2,0,0.4C412,381.7,376.4,417.4,332.4,417.6L332.4,417.6z"></path>
<path class="st2" d="M423.9,326.3c0-0.7,0-1.3-0.2-2l0,0l20.2-3.2l-5.4-44l-26.5,4.1c-5-8.9-11.5-16.8-19.2-23.5h0l13.6-20.1  l-35.7-26.2l-17.5,25.7c-6.8-1.7-13.8-2.5-20.9-2.5c-0.6,0-1.1,0-1.7,0.2l-7.9-27.8l-43,10.6l8,28.6c-9.9,5.5-18.8,12.7-26,21.4  L239.1,253l-25.4,36.3l28.8,18.8c-1.2,6-1.8,12.2-1.8,18.4c-0.1,2.1,0.1,4.3,0.3,6.4l-29.8,7.4l9,43.4l34.5-8.4l0,0  c3.7,6.1,8.2,11.7,13.2,16.7l-15.4,28.4l38.1,22.5l15.6-28.5l0,0c8,2.4,16.3,3.7,24.6,3.9l0,0l10.9,30.2l42.2-13.5l-9.6-27l0,0  c7.7-4,14.8-9,21-15l20.8,13l24.9-36.7l-21.9-13.9C422.2,346,423.8,336.2,423.9,326.3z M332.4,394.7c-37.7,0.2-68.5-30.3-68.6-68  c-0.2-37.7,30.3-68.5,68-68.6c37.7-0.2,68.5,30.3,68.6,68c0,0.1,0,0.2,0,0.3C400.4,364,370,394.5,332.4,394.7z"></path>
<linearGradient id="SVGID_00000023256523623505618740000011694252674839432368_" gradientUnits="userSpaceOnUse" x1="410.8274" y1="290.9705" x2="530.3373" y2="290.9705" gradientTransform="matrix(0.93 0.37 0.37 -0.93 -52.8193 454.2477)">
	<stop offset="0" style="stop-color:#010101;stop-opacity:0"></stop>
	<stop offset="0.95" style="stop-color:#010101"></stop>
</linearGradient>
<path style="fill:url(#SVGID_00000023256523623505618740000011694252674839432368_);" d="M538.7,375.5c0.1-0.3,0.2-0.7,0.3-1l0,0  l10.3,2.3l5.7-22l-13.4-3c-0.7-5.2-2.3-10.2-4.7-14.9l0,0l10.3-7l2.1-5.4L535,310.6l-13.2,9c-2.9-2.1-6.1-3.8-9.5-5.1  c-0.3-0.1-0.5-0.2-0.8-0.2l1.5-14.8l-20.4-8.5l-2.1,5.4l-1.5,15.2c-5.8,0.7-11.4,2.5-16.5,5.2l-8-11.2l-16.8,7.1l-2.2,5.4l10.2,14.4  c-1.7,2.7-3.2,5.5-4.3,8.4c-0.4,1-0.8,2-1,3.1l-13.5-7.5l-2.1,5.4l-3.9,22.4l18,2.5l0,0c0.6,3.6,1.7,7.1,3.2,10.5l-10.5,5.2  l-2.1,5.4l14,18l12.8-10.7l0,0c3.4,2.7,7.1,4.8,11,6.5l0,0l-0.5,16.5l22.7,1.5l2.1-5.4l-1.6-9.3l0,0c4.4-0.4,8.7-1.5,12.8-3.2  l7.5,10.1l18.8-12.8l2.1-5.4l-10-5.3C534.3,384.6,536.9,380.2,538.7,375.5z M471.3,377.6c-11.9-4.7-12.9-26.2-8.2-38.1  c4.7-11.9,48.2-10.9,60.1-6.2c11.9,4.7,9.4,19.3,4.7,31.2c11.3,1.1-1.7,6.1-1.7,6.2c-4.7,11.9-46.2,5.3-58.1,0.7L471.3,377.6z"></path>
<path class="st2" d="M393.6,217.6c-4-0.9-8.2-1-12.2-0.4c-1,0-1.9,0.5-2.6,1.3c-0.5,0.8-0.4,1.8,0.1,2.6c0.5,0.7,1.2,1.4,2,1.8  c5.7,3.5,12.4,4.8,19,5.9c0.4,0.1,0.7,0.1,1.1,0c0.7-0.2,0.9-1.1,1.1-1.8l2.1-9.7c0.1-0.3,0.1-0.6,0-0.8c-0.1-0.2-0.2-0.4-0.4-0.6  c-1.3-1.2-4.8-3.2-6.6-2.1S396.5,218.2,393.6,217.6z"></path>
<linearGradient id="SVGID_00000029006890216677569110000003967439521768662919_" gradientUnits="userSpaceOnUse" x1="373.6277" y1="281.3446" x2="398.2976" y2="352.9646" gradientTransform="matrix(0.9924 0.1234 0.1234 -0.9924 -22.3767 470.8314)">
	<stop offset="0" style="stop-color:#010101;stop-opacity:0"></stop>
	<stop offset="0.95" style="stop-color:#010101"></stop>
</linearGradient>
<path style="fill:url(#SVGID_00000029006890216677569110000003967439521768662919_);" d="M393.6,217.6c-4-0.9-8.2-1-12.2-0.4  c-1,0-1.9,0.5-2.6,1.3c-0.5,0.8-0.4,1.8,0.1,2.6c0.5,0.7,1.2,1.4,2,1.8c5.7,3.5,12.4,4.8,19,5.9c0.4,0.1,0.7,0.1,1.1,0  c0.7-0.2,0.9-1.1,1.1-1.8l2.1-9.7c0.1-0.3,0.1-0.6,0-0.8c-0.1-0.2-0.2-0.4-0.4-0.6c-1.3-1.2-4.8-3.2-6.6-2.1  S396.5,218.2,393.6,217.6z"></path>
<path class="st2" d="M494.8,95.4c0,0,10.9,6.7,12.1,8.1s-12.5,70.4-13.2,73.8s-20-3.1-27.9-5.8s-15.1-15.7-15.1-15.7  s8.8-59.5,10.6-60.5s17.8-3.6,17.8-3.6L494.8,95.4z"></path>
<path class="st2" d="M464.4,94.2c0,0-4.1,0.6-6.4,2.6s-22.4,27.4-21.3,33.5s7.4,8.8,9.5,8c2.1-0.9,7.3-8.4,8.4-10.6  c1-2.2,14.8-19.7,14.8-19.7L464.4,94.2z"></path>
<path class="st5" d="M496.3,88.6c0,0-2.1,7.3-1.7,10.2s-4.6,10.6-10.2,10.2s-5.1-10-5.1-11.1s1.8-1.6,1.4-4.5S495.9,85.2,496.3,88.6  z"></path>
<path class="st6" d="M480.7,93.4c0.2,1.4-0.2,2.8-1.1,3.8c1.2,1.3,2.8,2.1,4.5,2.3c3.4,0.2,8.7-2.4,11.2-7.3l0.1-0.3  c0.4-1.9,0.8-3.3,0.8-3.3C495.9,85.2,480.3,90.6,480.7,93.4z"></path>
<path class="st7" d="M494.6,97.7c0,0-5.2,10.5-9.1,11.4c0,0-1.1,0.5,1.6,2.4s11.1-6.2,10.4-12.5c-0.2-1.6-1.2-3.1-2.6-3.8  L494.6,97.7z"></path>
<path class="st7" d="M480.6,94.6c0,0-1.7,7.8,1.2,13.4c0,0-1.5,1.9-2.6,1.9s-3.6-7-2.2-12.1C477.9,94.8,480.1,93.7,480.6,94.6z"></path>
<path class="st8" d="M507,141.6"></path>
<path class="st9" d="M493.1,177.2l-4.2,44.7l-5.5,68.5c0,0-3,2.7-10.3,1.7l-2.8-73l-6.8-33.7l-37.1-5.5c-2.7-1-5.7,0.3-6.9,3  l-15.1,35.6c0,0-6-2.8-9.6-4.1l12.5-49.6c1.1-4.4,5.5-7,9.9-5.9c0.1,0,0.2,0,0.2,0.1L453,156L493.1,177.2z"></path>
<path class="st5" d="M478.5,71.1c0,0-2,14.7-1,18.7s4.1,7.6,7.5,7.8s8.7-2.4,11.2-7.3s4.4-17.4,3.9-19.1s-3.6-7.3-12.7-7  C481.2,64.4,478.6,68.9,478.5,71.1z"></path>
<path class="st9" d="M483.8,66.7l-1.1,2.5c-0.2,0.8-1,1.3-1.9,1.1c-0.8,0-1.6,0-2.3-0.1c-0.3,0-0.6-0.1-0.8-0.2  c-0.6-0.5-0.8-1.8-1.1-2.5c-0.6-0.9-0.9-1.9-0.9-2.9c0.1-0.6,0.3-1.1,0.6-1.6c0.6-0.8,1.3-1.5,2.1-2c0.4-0.2,0.7-0.4,1-0.7  c0.4-0.4,0.8-0.9,1.1-1.5c2.2-3.3,6.6-4.2,9.9-2c0.9,0.6,1.9,1.5,3,1.2c0.4-0.1,0.7-0.3,1.1-0.5c0.6-0.1,1.3-0.1,1.9,0  c1.5,0.2,3,0.7,4.4,1.4c1.7,1.2,2.6,3.1,4.1,4.6c1.1,1.1,2.5,1.9,3.5,3.1c1,1.2,1.5,3,0.6,4.3c-0.8,1.1-2.3,1.4-3,2.6  c-0.3,0.6-0.4,1.2-0.7,1.8c-0.4,0.5-0.8,1-1.3,1.4c-0.5,0.6-0.9,1.3-1.2,2.1c-0.5,0.9-1.1,1.8-1.8,2.6c-0.3,0.4-0.7,0.8-1.2,0.7  s-0.9-0.8-0.9-1.4c-0.3-2-0.5-3.9-0.5-5.9c0-0.6-0.1-1.3-0.2-1.8c-0.4-0.8-1-1.5-1.8-2c-2.4-1.8-5-3.1-7.9-3.8  c-0.8-0.2-1.6-0.4-2.5-0.6c-0.7-0.3-1.5-0.3-2.2,0"></path>
<path class="st5" d="M498.5,80.8c0,0,0.8-3.4,3-2.1c2.2,1.3-1,7.3-2.1,7.8c-0.5,0.3-1.1,0.4-1.7,0.4"></path>
<path class="st2" d="M422.4,154.5c-0.1,0.6-0.1,1.2,0.1,1.7c0.2,0.5,0.6,0.8,1.1,1.1c3.1,1.9,7.3,0.8,10.1-1.4s4.7-5.5,6.6-8.5  c1.7-2.7,3.5-5.3,5.5-7.9c0.7-1,1.5-2.2,1.1-3.3c-0.2-0.4-0.5-0.8-0.9-1.1c-6.4-6.3-2.7-15.4-8.3-8.5  C433.2,131.9,423.4,147.7,422.4,154.5z"></path>
<path class="st5" d="M414.9,155c-1.3,1-2.1,2.3-2.4,3.9c-0.1,1.6,1,3.3,2.6,3.2c0.7-0.1,1.3-0.3,1.9-0.7c1.9-0.8,4.1-0.7,6.2-0.9  s4.3-0.6,5.7-2.2c1.1-1.3,1.4-3,0.8-4.6C427.4,147.2,418.3,152,414.9,155z"></path>
<path class="st2" d="M472.2,298.3c-1.4,1.6-2.8,3.3-3.9,5.1c-0.9,1.3-1.6,2.7-2.1,4.3c-0.2,0.7-0.2,1.4,0,2.1  c0.4,0.9,1.2,1.6,2.1,1.9c0.9,0.3,1.9,0.4,2.9,0.2c3.9-0.3,7.7-1.7,10.8-4c1.1-0.8,2.1-1.8,2.7-3c0.6-1.5,0.6-3.2,0.1-4.7  c-0.4-1.6-1-3-1.5-4.6s-0.7-3.2-1-4.8c0-0.3-0.3-0.6-0.6-0.5c0,0,0,0,0,0c-2-0.3-5.4-0.5-6.6,1.6c-0.4,0.8-0.7,1.7-0.8,2.7  C474,295.9,473.2,297.3,472.2,298.3z"></path>
<linearGradient id="SVGID_00000082360073277429374550000002701871767049264269_" gradientUnits="userSpaceOnUse" x1="455.8301" y1="245.2413" x2="518.2402" y2="186.8512" gradientTransform="matrix(0.9924 0.1234 0.1234 -0.9924 -22.3767 470.8314)">
	<stop offset="0" style="stop-color:#010101;stop-opacity:0"></stop>
	<stop offset="0.95" style="stop-color:#010101"></stop>
</linearGradient>
<path style="fill:url(#SVGID_00000082360073277429374550000002701871767049264269_);" d="M472.2,298.6c-1.4,1.6-2.8,3.3-4,5.1  c-0.9,1.3-1.6,2.7-2.1,4.3c-0.2,0.7-0.2,1.4,0,2.1c0.4,0.9,1.2,1.6,2.1,1.9c0.9,0.3,1.9,0.4,2.9,0.2c3.9-0.3,7.7-1.7,10.8-4  c1.1-0.8,2.1-1.8,2.7-3c0.6-1.5,0.6-3.2,0.1-4.7c-0.4-1.6-1-3-1.5-4.6s-0.7-3.2-1-4.8c0-0.1-0.1-0.3-0.2-0.4  c-0.1-0.1-0.3-0.2-0.4-0.2c-2-0.3-5.4-0.5-6.6,1.6c-0.4,0.8-0.7,1.7-0.8,2.7C473.9,296.2,473.2,297.5,472.2,298.6z"></path>
<path class="st2" d="M514.9,110.4c4.2,5,5.7,7.2,9.7,12.4c0.2-11.6,3.1-20.2,3.3-31.8c-0.1-0.6,0.1-1.3,0.6-1.8  c0.4-0.2,0.9-0.3,1.4-0.3c2.5,0.1,4.9,0.4,7.3,1c0.5,0.1,0.9,0.3,1.2,0.6c0.2,0.4,0.3,0.9,0.2,1.4c-0.7,10.7-1.4,21.4-2.1,32.1  c-0.2,5.1-0.8,10.2-1.9,15.1c-0.6,2.3-1.6,4.9-3.8,5.9c-2.8,1.4-6.1-0.3-8.6-2.2c-8.1-5.9-14.4-13.8-20.6-21.7  c-0.7-0.7-1.2-1.6-1.5-2.5c-0.3-1.2-0.3-2.4,0-3.5c0.5-3.1,0.3-12.2,4.5-12.6C508.3,102.4,512.9,108,514.9,110.4z"></path>
<path class="st5" d="M526.2,83.8c-0.2-2.3-0.3-4.8,0.8-6.9c0.3-0.5,0.5-0.9,0.7-1.4c0.2-0.6,0.3-1.3,0.3-1.9c0.1-2.9,0.2-6,1.4-8.7  c0.2-0.5,0.6-1.1,1.2-1.1c0.6,0,1.1,0.8,1.2,1.5c0.5,2.2,0.8,4.5,0.9,6.8c0,0.4,0.1,0.8,0.3,1.2c0.2,0.2,0.4,0.3,0.7,0.4  c1,0.2,2,0.7,2.9,1.3c0.4,0.4,0.7,1,1.1,1.4c0.5,0.4,1,0.8,1.5,1.2c1.3,1.2,2.2,2.8,2.3,4.6c0.1,1.8-0.2,3.5-0.9,5.1  c-0.7,1.8-1.8,3.6-3.5,4.2c-1.2,0.3-2.5,0.4-3.8,0.1C528.8,91.1,526.6,88.1,526.2,83.8z"></path>
<path class="st2" d="M339.7,166.1c0,0,2.7,5.2,4.5,6s16.6,0.8,18,0.2s4.3-6.4,4.3-6.4L339.7,166.1z"></path>
<linearGradient id="SVGID_00000019666600377697770910000018290152053689678773_" gradientUnits="userSpaceOnUse" x1="337.9259" y1="304.4196" x2="364.636" y2="304.4196" gradientTransform="matrix(1 0 0 -1 1.78 473.7)">
	<stop offset="0" style="stop-color:#010101;stop-opacity:0"></stop>
	<stop offset="0.95" style="stop-color:#010101"></stop>
</linearGradient>
<path style="fill:url(#SVGID_00000019666600377697770910000018290152053689678773_);" d="M339.7,166.1c0,0,2.7,5.2,4.5,6  s16.6,0.8,18,0.2s4.3-6.4,4.3-6.4L339.7,166.1z"></path>
<path class="st2" d="M372.1,140.6c-0.1,0.3-0.1,0.6,0,0.9c0.9,4.7-26.3,27.6-35.5,1.8c-0.8-2.2-1.4-4.5-1.8-6.8  c0,0-23.9-49.4-7.3-71s53.6-18.9,64.9,10.6C400.8,97.9,373.8,133,372.1,140.6z"></path>
<linearGradient id="SVGID_00000159429955328036368870000001153136990338607025_" gradientUnits="userSpaceOnUse" x1="319.8666" y1="370.3573" x2="392.266" y2="370.3573" gradientTransform="matrix(1 0 0 -1 1.78 473.7)">
	<stop offset="0" style="stop-color:#FFFFFF;stop-opacity:0"></stop>
	<stop offset="0.95" style="stop-color:#FFFFFF"></stop>
</linearGradient>
<path style="fill:url(#SVGID_00000159429955328036368870000001153136990338607025_);" d="M372.1,140.6c-0.1,0.3-0.1,0.6,0,0.9  c0.9,4.7-26.3,27.6-35.5,1.8c-0.8-2.2-1.4-4.5-1.8-6.8c0,0-23.9-49.4-7.3-71s53.6-18.9,64.9,10.6C400.8,97.9,373.8,133,372.1,140.6z  "></path>
<linearGradient id="SVGID_00000110464807204473788310000017103375293163389108_" gradientUnits="userSpaceOnUse" x1="351.5647" y1="336.5133" x2="363.2647" y2="281.4432" gradientTransform="matrix(1 0 0 -1 1.78 473.7)">
	<stop offset="0" style="stop-color:#010101;stop-opacity:0"></stop>
	<stop offset="0.95" style="stop-color:#010101"></stop>
</linearGradient>
<path style="fill:url(#SVGID_00000110464807204473788310000017103375293163389108_);" d="M372.1,141.5c0.9,4.7-26.3,27.6-35.5,1.8  c10.7-6.7,24-7.7,35.5-2.7C372,140.9,372,141.2,372.1,141.5z"></path>
<path class="st2" d="M337.8,151.6c0.2,0.4,0.3,0.8,0.2,1.2c-0.1,0.4-0.3,0.7-0.6,1c-1.3,1.7-1.3,4.1-0.1,5.8  c-1.9,0.5-2.4,3.3-1.2,4.9s3.2,2.3,5.2,2.7c7.7,1.8,15.7,1.8,23.4,0.2c3-0.6,6.3-1.8,7.3-4.7c-0.5-0.8-1.2-1.5-2-2.1  c0.9-1,1.8-2.5,1-3.5c-0.3-0.3-0.7-0.5-1-0.8c-0.6-0.9-0.7-2.1-0.1-3c0.5-0.9,0.9-1.9,1.1-2.9c0-1.4-1-2.6-2.4-2.9  c-7,2.8-14.9,5.6-22,3C343.3,149.2,334.6,143.1,337.8,151.6z"></path>
<linearGradient id="SVGID_00000014604713755548115520000003090537131277303229_" gradientUnits="userSpaceOnUse" x1="345.3475" y1="309.1339" x2="385.4475" y2="357.1539" gradientTransform="matrix(1 0 0 -1 1.78 473.7)">
	<stop offset="0" style="stop-color:#010101;stop-opacity:0"></stop>
	<stop offset="0.95" style="stop-color:#010101"></stop>
</linearGradient>
<path style="fill:url(#SVGID_00000014604713755548115520000003090537131277303229_);" d="M337.8,151.6c0.2,0.4,0.3,0.8,0.2,1.2  c-0.1,0.4-0.3,0.7-0.6,1c-1.3,1.7-1.3,4.1-0.1,5.8c-1.9,0.5-2.4,3.3-1.2,4.9s3.2,2.3,5.2,2.7c7.7,1.8,15.7,1.8,23.4,0.2  c3-0.6,6.3-1.8,7.3-4.7c-0.5-0.8-1.2-1.5-2-2.1c0.9-1,1.8-2.5,1-3.5c-0.3-0.3-0.7-0.5-1-0.8c-0.6-0.9-0.7-2.1-0.1-3  c0.5-0.9,0.9-1.9,1.1-2.9c0-1.4-1-2.6-2.4-2.9c-7,2.8-14.9,5.6-22,3C343.3,149.2,334.6,143.1,337.8,151.6z"></path>
<path class="st7" d="M361.1,150.7l-2.4-0.6l3-12c5.6-22.7,4.6-27.9,3.6-29c-0.1-0.1-0.2-0.2-0.5-0.1c-0.5,0.1-0.9,0.3-1.3,0.6  c0.7,1.1,1.2,2.4,1.6,3.7c0.6,2.5,0.2,4.6-1.2,5.6c-0.8,0.7-2,0.9-3,0.3c-1.7-1-2-4-1.6-6.4c0.2-1.1,0.6-2.2,1.1-3.2  c-0.6-0.7-1.4-1.2-2.3-1.4c-1.1-0.2-2.3,0.6-3.3,2.2c-0.4,0.6-0.8,1.3-1.1,2c2.4,2.2,3.8,6.2,2.7,8.2c-0.4,0.9-1.3,1.5-2.3,1.4  c-1.4-0.1-2.6-0.9-3.2-2.2c-0.5-0.9-1.3-3.1-0.3-6.5c-0.8-0.2-1.8-0.1-3,1.6c-3.6,4.9,1.3,26.8,3.5,34.8l-2.4,0.6  c-0.8-3.1-8-30.2-3.1-37c2.2-3,4.5-3,6-2.4c0.3-0.7,0.7-1.4,1.1-2c2-3.2,4.3-3.6,5.8-3.3c1.3,0.3,2.6,1,3.5,2  c0.7-0.5,1.5-0.9,2.3-1.1c1-0.3,2.1,0.1,2.8,0.8c1.8,1.8,3,7.1-2.9,31.4L361.1,150.7z M352.6,115c-0.3,1.2-0.2,2.5,0.3,3.6  c0.4,0.7,0.8,0.9,1,0.9l0,0C354.4,118.7,353.8,116.6,352.6,115z M361.8,112c-0.1,0.4-0.2,0.8-0.3,1.2c-0.4,2.1,0.1,3.6,0.5,3.9  c0,0,0.1-0.1,0.3-0.2c0.5-0.4,0.6-1.6,0.3-3C362.3,113.2,362.1,112.6,361.8,112L361.8,112z"></path>
<path class="st2" d="M402.4,329.3c-0.1,0.3-0.1,0.7-0.2,1c-0.6,14.9-5.4,28.4-14.6,40.2c-10.4,13.4-23.9,22-40.4,25.8  c-3.3,0.8-6.6,1.3-10,1.4c-3.1,0.1-6.3,0.3-9.4,0.1c-8.6-0.5-16.8-2.5-24.7-6.1c-13.6-6.3-24.3-15.9-31.9-28.8  c-4.1-7-6.8-14.4-8.3-22.4c-0.8-4.1-1.2-8.3-1.2-12.5c0-14.8,4.1-28.4,12.7-40.5c9.6-13.6,22.5-22.8,38.5-27.4  c4-1.2,8.1-1.9,12.2-2.3c1.8-0.1,3.5-0.2,5.3-0.3c0.2,0,0.3-0.1,0.5-0.1c0.7,0,1.5,0,2.2,0c0.4,0.1,0.8,0.1,1.2,0.1  c4.3,0.1,8.6,0.6,12.8,1.6c16.5,3.8,30.1,12.3,40.4,25.7c9.2,11.8,14,25.3,14.6,40.3c0,0.3,0.1,0.6,0.2,0.9  C402.4,327.2,402.4,328.3,402.4,329.3z M332,394.9c37-0.1,67.2-29.9,67.3-67.1c0.1-37.1-29.9-67.3-67.1-67.4  c-37.1-0.1-67.2,29.9-67.3,67.1C264.8,364.7,294.8,394.8,332,394.9z"></path>
<path class="st2" d="M295.2,299.5c1.4-0.1,2.7-0.2,4-0.3c1-0.1,2-0.2,2.9-0.3c1.4-0.2,2.4-1.5,2.2-2.8c-0.2-1.5-1.4-2.4-2.9-2.3  c-1.5,0.2-3,0.3-4.5,0.3c-4.6,0.2-9.1,0.3-13.7,0.4c-0.4,0-0.8,0-1.4-0.1c9.3-13.4,21.6-22.2,37.4-25.6c20-4.2,37.7,0.8,53.2,13.9  c0,0.1,0,0.2,0,0.2c-0.7,0.1-1.4,0.1-2.1,0.3c-4.3,0.9-7.6,4.5-8.2,8.8c-0.4,3,0.2,5.8,1.5,8.4c1.2,2.3,2.5,4.5,3.8,6.7  c2.2,3.7,4,7.5,4.9,11.7c0.9,4.2,0.8,8.5-0.4,12.6c-1.5,5.3-3.1,10.6-4.6,15.8c-1.6,5.3-3.2,10.6-4.8,15.9c-0.1,0.2-0.1,0.3-0.2,0.7  c-7.2-21.6-14.4-43-21.7-64.4c1.4-0.1,2.7-0.2,4-0.3c1-0.1,2-0.2,2.9-0.3c1.4-0.2,2.3-1.4,2.1-3c-0.2-1.4-1.4-2.3-2.8-2.2  c-2.6,0.2-5.2,0.4-7.9,0.5c-3.2,0.1-6.3,0.3-9.5,0.2c-3.5,0-7-0.3-10.5-0.5c-1.4-0.1-2.7-0.2-4.1-0.3c-1.4-0.1-2.6,1-2.6,2.4  c-0.1,1.6,0.8,2.6,2.3,2.7c2,0.2,3.9,0.3,5.9,0.6c0.2,0,0.5,0.4,0.6,0.6c1.4,3.9,2.8,7.7,4.2,11.6c1.6,4.3,3.1,8.5,4.7,12.8  c0.1,0.4,0.2,0.9,0,1.3c-4.2,12.8-8.5,25.6-12.8,38.3c0,0.1,0,0.1-0.1,0.4C309.7,342.7,302.5,321.1,295.2,299.5z"></path>
<path class="st2" d="M333.1,333.3c6.3,17.2,12.5,34.2,18.7,51.3c-0.8,0.2-1.5,0.5-2.3,0.7c-4,1.2-8.1,2-12.3,2.4  c-7.3,0.6-14.4-0.1-21.4-2c-0.6-0.2-0.7-0.4-0.5-1c5.9-17,11.7-34,17.6-51C333,333.7,333,333.5,333.1,333.3z"></path>
<path class="st2" d="M305.5,381.7c-30.5-14.7-41.1-50.9-28.6-78.3C286.5,329.6,296,355.6,305.5,381.7z"></path>
<path class="st2" d="M385.2,299.4c14.9,27.3,6,63.4-22.6,80.2c0.1-0.3,0.2-0.5,0.2-0.7c6-17.3,11.9-34.6,18-51.9  c1.3-3.6,2.6-7.2,3.5-11c0.9-3.9,1.3-7.9,1.3-12C385.5,302.5,385.3,300.9,385.2,299.4z"></path>
<g>
	<path class="st2" d="M522.7,347.5c-1.8-3.3-6.4-4-9.2-1.7c-1.1,0.9-1.9,2-2.5,3.3c-1.1,2.2-1.6,4.5-1.4,7c0.1,1.2,0.3,2.4,0.9,3.6   c1.3,2.8,4,3.9,6.6,3.5c1.6-0.2,2.8-1,3.9-2.2c1.2-1.4,2-3.1,2.5-4.9c0.3-1.2,0.5-2.4,0.5-3.7c0-0.4,0-0.9-0.1-1.3   C523.7,349.8,523.3,348.6,522.7,347.5z M518.6,356.7c-0.4,0.8-1,1.4-1.8,1.9c-0.9,0.5-1.7,0.3-2.3-0.6c-0.6-1-0.9-2.1-0.8-3.4   c0-1.7,0.7-3.4,1.8-4.9c0.4-0.5,0.9-0.9,1.5-1c0.7-0.1,1.2,0.1,1.6,0.6c0.5,0.7,0.8,1.5,0.9,2.3   C519.8,353.5,519.4,355.2,518.6,356.7z"></path>
	<path class="st2" d="M507,347.3c-1.4-2.3-4-3.1-6.3-2.7c-1.6,0.3-2.9,1.2-3.9,2.5c-1.9,2.4-2.8,5.1-2.8,8.2c0,1.1,0.1,2.2,0.5,3.3   c0.4,1.2,1,2.3,1.9,3.2c1,0.9,2.2,1.4,3.5,1.5c1.7,0.2,3.2-0.2,4.5-1.3c1.1-0.9,1.9-2.1,2.6-3.3c1.1-2.2,1.6-4.6,1.4-7.1   C508.1,349.9,507.7,348.6,507,347.3z M502.5,357.5c-0.4,0.5-0.9,1-1.6,1.2c-0.7,0.3-1.4,0.1-1.9-0.5c-0.5-0.7-0.8-1.5-0.9-2.3   c-0.3-2.3,0.3-4.4,1.9-6.2c0.3-0.3,0.6-0.6,1-0.8c0.8-0.4,1.6-0.2,2.1,0.5c0.5,0.7,0.7,1.5,0.9,2.3c0.1,0.3,0.1,0.7,0.1,1   C504,354.5,503.6,356.1,502.5,357.5z"></path>
	<path class="st2" d="M543.8,346.3c-0.7-5.2-2.3-10.2-4.7-14.9l10.3-7l-12.1-19.2l-13.2,8.9c-2.9-2.1-6.1-3.8-9.5-5.1   c-0.3-0.1-0.5-0.2-0.8-0.2l1.5-14.8l-22.5-3.1l-1.5,15.2c-5.8,0.7-11.4,2.5-16.5,5.3l-8-11.2l-19,12.5l10.2,14.4   c-1.7,2.7-3.2,5.5-4.3,8.4c-0.4,1-0.7,2-1,3.1l-15.6-2.1l-3.9,22.4l18,2.5c0.6,3.6,1.7,7.1,3.2,10.5l-12.7,10.6l14,18l12.8-10.7   c3.4,2.7,7.1,4.8,11,6.5l-0.5,16.5l22.7,1.5l0.5-14.7c4.4-0.4,8.7-1.5,12.9-3.2l7.4,10.2l18.8-12.8l-7.9-10.7   c3.3-3.9,5.9-8.2,7.8-13c0.1-0.3,0.2-0.7,0.3-1l10.3,2.3l5.7-22L543.8,346.3z M526.8,363.2c0,0.1-0.1,0.2-0.1,0.3   c0,0.7-0.2,1.3-0.5,1.9c-1.1,2.1-2.8,3.3-5.2,3.3c-5.8,0-11.6,0-17.4,0c-0.1,0-0.2,0-0.4,0c0.8,2,1.6,3.9,2.4,5.9   c-0.1-0.1-0.2-0.1-0.3-0.1c-3.4-1.9-6.8-3.8-10.1-5.6c-0.2-0.1-0.4-0.1-0.6-0.1c-7.7,0-15.4,0-23.2,0c-0.5,0-1-0.1-1.5-0.2   c-2.3-0.6-4.2-2.7-4.2-5.6c0-6.3,0-12.5,0-18.8c0-1,0.2-2,0.7-2.9c1.2-1.9,2.9-2.9,5.1-2.9c16.4,0,32.8,0,49.2,0   c0.4,0,0.8,0,1.2,0.1c2.3,0.3,4.2,2.1,4.6,4.4c0.1,0.4,0.1,0.7,0.2,1.1C526.8,350.4,526.8,356.8,526.8,363.2z"></path>
	<path class="st2" d="M494.4,343.5c-0.1-0.9-0.9-1.6-1.8-1.7c-0.9-0.1-1.7,0.2-2.1,1.1c-0.4,0.8-0.8,1.7-1.1,2.6   c-0.6,1.7-1.1,3.5-1.4,5.3c-0.3,1.5-0.5,3.1-0.7,4.6c0,0.3-0.1,0.6-0.1,1c-0.1-0.1-0.1-0.2-0.1-0.3c-0.9-2.4-1.6-4.9-2.1-7.4   c-0.1-0.6-0.2-1.3-0.5-1.8c-0.5-1-1.6-1.1-2.4-0.7c-0.6,0.3-0.9,0.8-1.2,1.3c-1.6,3-3.2,6.1-4.8,9.1c-0.2,0.4-0.4,0.7-0.6,1.1   c0-0.1,0-0.1,0-0.1c-0.4-2.1-0.9-4.2-1.3-6.3c-0.4-2.2-0.7-4.4-1.1-6.7c-0.1-0.4-0.2-0.9-0.5-1.2c-0.5-0.6-1.1-0.6-1.8-0.6   c-1.2,0.1-2.1,1.1-1.9,2.5c0.2,1.5,0.5,3,0.7,4.5c0.6,2.9,1.1,5.9,1.7,8.8c0.4,1.8,0.9,3.7,1.6,5.4c0.2,0.5,0.4,0.9,0.7,1.3   c0.5,0.6,1.1,0.7,1.7,0.3c0.3-0.2,0.6-0.4,0.9-0.7c1-1,1.7-2.3,2.3-3.6c1.1-2.2,2.2-4.4,3.3-6.6c0-0.1,0.1-0.1,0.1-0.3   c0,0.1,0,0.1,0.1,0.2c0.3,0.8,0.5,1.6,0.8,2.5c0.8,2.1,1.7,4.1,3,5.9c0.6,0.8,1.2,1.7,2,2.3c1.2,1,2.7,0.6,3.1-0.9   c0.1-0.4,0.1-0.9,0.1-1.4c0-1.3,0-2.6,0.1-3.9c0.1-1.2,0.2-2.4,0.4-3.6c0.2-1.4,0.4-2.9,0.7-4.3c0.4-2.2,0.9-4.5,2-6.5   C494.5,344.4,494.5,343.9,494.4,343.5z"></path>
</g>
<linearGradient id="SVGID_00000089555340569566081210000008366814481569643398_" gradientUnits="userSpaceOnUse" x1="549.7163" y1="310.7237" x2="634.27" y2="310.7237" gradientTransform="matrix(0.9876 0.1572 -0.1572 0.9876 50.6703 -81.0506)">
	<stop offset="0" style="stop-color:#010101;stop-opacity:0"></stop>
	<stop offset="0.95" style="stop-color:#010101"></stop>
</linearGradient>
<path style="fill:url(#SVGID_00000089555340569566081210000008366814481569643398_);" d="M615.1,337.3c0.1-0.2,0.2-0.4,0.3-0.6l0,0  l6.6,2.6l6.2-14.2l-8.7-3.4c0.1-3.6-0.5-7.1-1.6-10.5l0,0l7.6-3.6l2-3.4l-8.1-10.8l-9.8,4.6c-1.8-1.7-3.7-3.2-5.8-4.5  c-0.2-0.1-0.3-0.2-0.5-0.2l2.6-9.8l-12.8-7.9l-2,3.4l-2.7,10c-4-0.1-7.9,0.5-11.6,1.8l-4.2-8.4l-12.1,3l-2,3.4l5.3,10.7  c-1.4,1.6-2.7,3.3-3.8,5.2c-0.4,0.6-0.7,1.3-1,2l-8.2-6.5l-2,3.4l-5,14.6l11.8,3.6l0,0c0,2.5,0.4,5,1,7.4l-7.6,2.4l-2,3.4l7.5,13.6  l9.7-5.8l0,0c2,2.1,4.2,4,6.7,5.5l0,0l-2.1,11l15.1,3.5l2-3.4l-0.1-6.4l0,0c3,0.2,6-0.1,9-0.8l3.9,7.6l14-6.6l2-3.4l-6.1-4.6  C611.2,342.9,613.4,340.3,615.1,337.3z M569.6,331.5c-7.5-4.4-1.4-23,3-30.5c4.4-7.5,29,1.9,36.6,6.3c7.5,4.4,4.2,13.9-0.2,21.5  c7.5,1.9-4.3,7.1-4.3,7.1c-4.4,7.5-29.1-4.5-36.6-8.9L569.6,331.5z"></path>
<g>
	<path class="st2" d="M593.7,323.1c-1.7-0.5-3.4-1.1-5.1-1.6c-2.1-0.6-2-0.6-2.6,1.5c-0.1,0.5,0,0.6,0.4,0.8c1.1,0.3,2.2,0.7,3.3,1   c0,0,0,0,0,0c0.6,0.2,1.3,0.4,1.9,0.6c2,0.6,2,0.6,2.6-1.4C594.3,323.4,594.2,323.2,593.7,323.1z"></path>
	<path class="st2" d="M595.2,318c-1.7-0.5-3.4-1.1-5.1-1.6c-2-0.6-2-0.6-2.6,1.4c-0.2,0.5,0,0.7,0.5,0.9c1.1,0.3,2.1,0.6,3.1,1   c1.1,0.4,2.3,0.7,3.4,1.1c0.4,0.1,0.6,0,0.7-0.4c0.1-0.5,0.3-1,0.5-1.4C596,318.3,595.7,318.1,595.2,318z"></path>
	<path class="st2" d="M585.4,309.3c-0.6-0.2-0.8,0-1,0.5c-1.2,3.8-2.4,7.6-3.5,11.4c-0.1,0.2-0.1,0.4-0.2,0.7   c0.9,0.3,1.7,0.5,2.5,0.8c1.3-4.3,2.7-8.5,4-12.7C586.6,309.7,586,309.6,585.4,309.3z"></path>
	<path class="st2" d="M621.6,318.3c0.1-3.6-0.5-7.1-1.6-10.5l7.6-3.6l-6.1-14.2l-9.8,4.6c-1.8-1.7-3.7-3.2-5.8-4.5   c-0.2-0.1-0.3-0.2-0.5-0.2l2.6-9.7l-14.8-4.5l-2.7,10c-4-0.1-7.9,0.5-11.6,1.8l-4.2-8.4l-14.1,6.4l5.3,10.7   c-1.4,1.6-2.7,3.3-3.8,5.2c-0.4,0.6-0.7,1.3-1,2l-10.3-3.1l-5,14.6l11.8,3.6c0,2.5,0.4,5,1,7.4l-9.7,5.7l7.5,13.5l9.7-5.8   c2,2.1,4.2,4,6.7,5.5l-2.1,11l15.1,3.5l1.9-9.8c3,0.2,6-0.1,9-0.8l3.9,7.6l14-6.6l-4.1-8c2.6-2.2,4.9-4.9,6.6-7.9   c0.1-0.2,0.2-0.4,0.3-0.6l6.7,2.6l6.2-14.2L621.6,318.3z M607.2,309.5c-1.3,4.2-2.6,8.3-3.9,12.5c0,0,0,0,0,0   c-1.3,4.1-2.6,8.3-3.9,12.4c-0.5,1.4-1,1.7-2.5,1.3c-8.3-2.6-16.5-5.2-24.8-7.7c-1.4-0.4-1.7-1.1-1.3-2.5   c2.6-8.3,5.2-16.5,7.8-24.8c0.4-1.4,1.1-1.7,2.5-1.3c8.3,2.6,16.5,5.2,24.8,7.8C607.3,307.5,607.6,308.2,607.2,309.5z"></path>
	<path class="st2" d="M596.8,312.9c-1.7-0.5-3.4-1.1-5.1-1.6c-2-0.6-2-0.6-2.6,1.4c-0.2,0.5,0,0.7,0.5,0.9c1.1,0.3,2.1,0.7,3.2,1   c1.1,0.3,2.2,0.7,3.3,1c0.5,0.2,0.7,0,0.8-0.4c0.1-0.4,0.2-0.9,0.4-1.3C597.5,313.3,597.4,313.1,596.8,312.9z"></path>
</g>
<linearGradient id="SVGID_00000054982603278457191290000002609497021392684183_" gradientUnits="userSpaceOnUse" x1="539.4536" y1="254.0704" x2="592.3123" y2="254.0704" gradientTransform="matrix(0.9096 -0.4154 0.4154 0.9096 -47.4151 259.0566)">
	<stop offset="0" style="stop-color:#010101;stop-opacity:0"></stop>
	<stop offset="0.95" style="stop-color:#010101"></stop>
</linearGradient>
<path style="fill:url(#SVGID_00000054982603278457191290000002609497021392684183_);" d="M594.2,254.8c0-0.1,0-0.3-0.1-0.4l0,0  l4.4-0.9l-1.7-9.5l-5.7,1.2c-1.2-1.9-2.7-3.5-4.4-4.9l0,0l2.7-4.5l-0.1-2.5l-8-2.8l-3.5,5.8c-1.5-0.3-3-0.4-4.6-0.3  c-0.1,0-0.2,0-0.4,0.1l-2-6l-9.4,0.3l0.1,2.5l2.1,6.1c-2.1,1.3-4,3-5.5,4.9l-5.1-2.9l-5.3,5.7l0.1,2.5l6.5,3.8  c-0.2,1.3-0.3,2.7-0.2,4c0,0.5,0.1,0.9,0.2,1.4l-6.5-0.5l0.1,2.5l2.5,9.3l7.4-2.2l0,0c0.9,1.3,1.9,2.5,3.1,3.5l-3.1,3.9l0.1,2.5  l8.6,4.5l3.1-6.4l0,0c1.8,0.4,3.6,0.6,5.4,0.6l0,0l2.7,6.5l9-3.4l-0.1-2.5l-2.3-3.3l0,0c1.6-0.9,3.1-2.1,4.4-3.5l4.7,2.6l5-8.3  l-0.1-2.5l-4.8-0.3C594.1,259.1,594.3,256.9,594.2,254.8z M568.5,267.5c-5.4,0.3-8.7-11.5-9-16.9c-0.3-5.4,11.3-13.5,16.8-13.8  s13,9.1,13.3,14.5c4.6-1.6-1.3,6.3-1.3,6.3c0.3,5.4-16.7,7.7-22.1,8L568.5,267.5z"></path>
<linearGradient id="SVGID_00000011711869782845439960000014487760525156600231_" gradientUnits="userSpaceOnUse" x1="572.3594" y1="251.6393" x2="625.218" y2="251.6393" gradientTransform="matrix(0.9571 0.2896 -0.2896 0.9571 115.1432 -187.9922)">
	<stop offset="0" style="stop-color:#010101;stop-opacity:0"></stop>
	<stop offset="0.95" style="stop-color:#010101"></stop>
</linearGradient>
<path style="fill:url(#SVGID_00000011711869782845439960000014487760525156600231_);" d="M631.6,240.1c0.1-0.1,0.2-0.2,0.2-0.4l0,0  l3.9,2.2l5-8.2l-5.1-2.9c0.3-2.2,0.3-4.4-0.1-6.6l0,0l5-1.6l1.5-1.9l-4.1-7.4l-6.5,2c-0.9-1.2-2-2.3-3.2-3.3  c-0.1-0.1-0.2-0.1-0.3-0.2l2.4-5.8l-7.2-6l-1.5,1.9l-2.5,6c-2.4-0.4-4.9-0.4-7.4,0.1l-1.9-5.6l-7.7,0.8l-1.5,1.9l2.4,7.1  c-1,0.9-2,1.8-2.8,2.9c-0.3,0.4-0.6,0.7-0.8,1.1l-4.6-4.7l-1.5,1.9l-4.3,8.6l7,3.2l0,0c-0.2,1.5-0.2,3.1,0,4.7l-4.9,0.8l-1.5,1.9  l3.5,9l6.5-2.8l0,0c1,1.5,2.3,2.8,3.7,4l0,0l-2.2,6.6l9,3.4l1.5-1.9l0.5-4l0,0c1.8,0.4,3.7,0.5,5.6,0.3l1.8,5l9.2-2.9l1.5-1.9  l-3.4-3.4C628.6,243.3,630.3,241.8,631.6,240.1z M603.9,232.7c-4.3-3.4-5.9-15.4,4.4-18.6c3.4-4.3,15.4-5.6,19.7-2.2  c4.3,3.4,3.8,18.2,0.5,22.4c4.5,1.8-7.7,8.5-8.8,6.9c-3.4,4.2-12.1-8.1-16.4-11.5L603.9,232.7z"></path>
<g>
	<path class="st2" d="M614.9,229.3c0.7,0.3,1.3,0.6,1.9,0.9"></path>
	<path class="st2" d="M626,192.9"></path>
</g>
<path class="st7" d="M761.5,335.9c-6.2,0-12.2,0-18.6,0c-0.1-1.8-0.3-3.2-0.3-4.7c0-27.7,0-55.4-0.1-83.2c0-4.1,1-5.7,5.3-5.4  c4.4,0.3,8.9,0.1,13.8,0.1C761.5,274,761.5,304.8,761.5,335.9z"></path>
<path class="st7" d="M808.1,262.1c-7.8,0-15.6-0.2-23.4,0.1c-3.6,0.1-5-0.8-5-4.7c-0.2-14.7-0.3-14.7,14.3-14.7  c12.5,0,24.9,0.2,37.4-0.1c4.3-0.1,5.6,1.4,5.3,5.4c-0.3,3.1-0.2,6.3,0,9.4c0.2,3.4-1,4.7-4.6,4.6  C824.1,262,816.1,262.1,808.1,262.1z"></path>
<path class="st7" d="M1395.5,298.8c-1.2,6.5-1.6,11.3-3.1,15.8c-0.7,2.1-3.3,4.9-5.2,5c-2.2,0.1-5.6-1.9-6.6-3.9  c-5.7-11.6-5.7-23.7-0.6-35.5c2.2-5.1,7.5-5.3,9.8-0.2C1392.6,286.5,1393.9,293.5,1395.5,298.8z"></path>
<path class="st7" d="M676.7,177.3c0,75.1,0,150.1,0,225c266.7,0,533.4,0,800,0c0-75.1,0-150.1,0-225  C1210,177.3,943.4,177.3,676.7,177.3z M893.7,380c0,10.5-3.1,13.7-13.6,13.7c-60.4,0.1-120.8,0.1-181.3,0.2  c-10.2,0-13.8-3.6-13.8-13.7c0-60.4,0.1-120.9,0.1-181.3c0-10,3.8-13.9,13.8-13.9c60.4,0,120.8,0.1,181.3,0.2  c9.8,0,13.3,3.5,13.3,13.1c0,30.4,0,60.8,0,91.2c0.1,0,0.2,0,0.2,0C893.7,319.6,893.8,349.8,893.7,380z M1463.6,295.4  c-3.7,10.4-7.2,21-11.8,31c-2,4.5-6.1,8.4-10,11.5c-8.3,6.4-17.6,3.2-20.7-6.7c-3.6-11.2-2-22.3,0.5-33.4c0.3-1.1,0.6-2.2,0.8-3.4  c0.1-0.3-0.1-0.6-0.1-1.1c-3.2-1.2-5.4-0.6-6.3,3c-0.1,0.5-0.3,1.2-0.7,1.3c-6.4,1.8-5,7.8-6.3,12.1c-4.9,15.7-17.1,23.7-32.1,20.8  c-6.3-1.2-9.7-3.9-15.9-12.7c-0.7,1.3-1.2,2.4-1.9,3.4c-3.6,5.5-6.6,11.6-11.1,16.4c-8.5,9-19.8,6.2-23.5-5.5  c-1.7-5.5-2.3-11.3-3.4-17.4c-3.5,4.1-6.7,8.1-10.2,11.9c-3.1,3.3-6.8,5.2-11.6,4.4c-6.7-1.1-10.7-5.1-11.9-12.8  c-0.8-5-0.9-10-1.5-16.7c-1.7,2.9-3,4.4-3.5,6.1c-2,6.7-3.4,13.5-5.6,20.1c-0.9,2.7-2.8,6.5-4.9,7.1c-3.5,0.9-7.7,0.1-11.3-1  c-1.2-0.3-1.9-3.5-2.1-5.5c-0.3-3.5-0.1-7.1-0.1-10.6c-0.4-0.1-0.8-0.2-1.2-0.3c-0.8,1.5-1.6,3-2.5,4.5  c-6.8,11.1-15.1,20.3-28.8,22.7c-11.8,2.1-19.1-2-23.6-13.2c-1.5-3.8-2.4-7.9-3.8-12.5c-2,2.8-3.7,5.5-5.7,7.9c-2.5,2.8-5,6-8.1,7.9  c-7.4,4.6-14.7,1.6-17.1-6.9c-3.1-10.7-1.4-21.4,0.5-32.1c0.1-0.8,0.4-1.6,0.5-2.4c0-0.2-0.3-0.5-0.8-1.3c-1.2,1.8-2.4,3.3-3.3,5  c-4.2,8.1-7.9,16.5-12.5,24.3c-2,3.3-5.3,6.3-8.6,8.3c-4.1,2.3-6.3,0.9-6.7-3.8c-0.6-6.4-0.6-12.9-0.9-19.4c-0.1-1.7,0-3.5,0-5.2  c-0.4-0.1-0.8-0.2-1.2-0.3c-0.8,1.5-1.8,2.9-2.3,4.5c-2.7,9-5.4,18.1-7.8,27.2c-1.4,5.2-5.2,7.8-11.3,7.1c-5.3-0.6-6.8-2.7-6.8-8.9  c0-4.5,0-9.1,0-13.6c-0.5-0.1-1.1-0.1-1.6-0.2c-1,1.7-1.9,3.3-2.9,5c-5.8,9.8-13.3,17.9-24.5,21.6c-13.6,4.5-23.7-0.4-28.6-13.7  c-0.6-1.5-1.1-3.1-1.8-5.2c-2.5,4.7-4.5,9.1-7.2,13c-2.5,3.6-5.5,7.3-9.1,9.7c-7,4.7-14.5,2.3-17.6-5.5c-2.2-5.5-3.1-11.4-4.5-17.2  c-0.5-2-0.5-4.2-1.7-6.5c-1,1.8-2,3.6-3.1,5.3c-7.1,11-15.9,19.6-29.6,21.5c-8.9,1.2-16-1.8-20-9.8c-2.4-4.8-4.2-10.2-4.9-15.5  c-2.2-18.3,0.7-35.8,10.6-51.6c8.2-13.2,21-13.4,29.4-0.3c3.1,4.8,4.6,10.9,5.7,16.7c1.1,5.8-2,10.6-7.3,12.9  c-5.4,2.3-11.4,3.4-17,5.3c-1.5,0.5-3.9,2.1-3.9,3.2c-0.1,6.8-0.4,13.7,0.7,20.3c1.6,8.6,7.6,10.7,14.7,5.3c4-3.1,7.8-6.9,10.6-11.1  c4.8-7.2,9.3-14.6,12.7-22.5c2.2-5.1,2.5-11.2,3-16.9c1.4-17,2.5-34.1,3.7-51.1c0.5-6.3,2.7-8.9,7.8-9.9c7.1-1.3,12,3.1,11.3,10.3  c-1.9,18.5-4.2,36.9-5.4,55.5c-0.9,13.2-0.6,26.5-0.3,39.8c0.1,2.9,2.3,5.8,3.5,8.7c1.8-2.2,4.3-4.2,5.3-6.7  c5-13.2,9.4-26.5,14.4-39.7c2.9-7.5,5.7-15.3,10.1-22c6.7-10.2,17.3-10.2,25.5-1c4.7,5.3,7.1,11.6,7.8,18.5  c0.7,6.5-1.8,11.7-7.7,14.3c-5.4,2.3-11.4,3.3-17,5.1c-1.4,0.5-3.5,2-3.5,3c0,7.2-0.3,14.6,1,21.7c1.3,7,7.1,9.1,12.9,4.9  c4.6-3.3,9-7.5,12.2-12.2c5-7.4,9.6-15.2,13-23.4c2.1-5.1,1.7-11.3,2.3-17.1c0.9-8.9,6.8-15.1,15.5-16.2c4.9-0.6,6.5,1.2,5.7,6.1  c-1.9,12.9-3.7,25.8-5.5,38.8c0.4,0.1,0.8,0.2,1.2,0.2c3.2-6.8,6.2-13.7,9.7-20.5c2.8-5.5,7.3-8.8,13.8-9.3c5-0.3,9.2,1.6,7,7.9  c-1.3,3.7-1.2,7.9-0.9,12.1c5.3-8.3,10.7-16.6,16-25c2.8-4.4,7-6.5,12-7.2c6.1-0.8,9.3,2.1,8.5,8.2c-1.7,12.5-3.8,24.9-5.6,37.4  c-0.6,4-0.6,8.1-0.9,12.1c0.5,0.2,1,0.4,1.5,0.7c1.4-1.4,3.4-2.5,4.2-4.2c4.5-9.6,8.8-19.2,13-28.9c3.6-8.5,6-17.7,10.8-25.4  c6.8-11.1,18-11,26.4-1c4.5,5.3,6.6,11.4,7.3,18.2c0.6,6.3-1.9,11.4-7.6,13.9c-5.4,2.3-11.4,3.3-17,5.2c-1.5,0.5-3.7,2.2-3.8,3.3  c-0.1,6.9-0.4,14,0.8,20.8c1.4,7.7,7.2,9.6,13.9,5.2c2.9-1.9,5.6-4.3,7.8-6.9c3.1-3.7,5.8-7.7,8.3-11.8c6-9.5,10.6-19.3,11-30.9  c0.3-8.1,6.7-13.1,13.9-12.2c4.9,0.6,6.9,3.3,6.1,8.2c-1.3,8-2.7,16-4,24c-0.3,1.7-0.3,3.4,0.4,5.1c2.8-5.7,5.6-11.4,8.4-17.1  c2.5-4.9,6.8-7.2,12-7.9c6.6-1,8.8,1.8,8,8.2c-1,8-1,16.2-1.2,24.3c0,1.3,0.9,3.3,1.9,3.6c0.9,0.3,2.9-0.7,3.7-1.7  c7.8-9.2,14.5-19,14.6-31.8c0.1-7.1,0.9-14.2,1.5-21.8c-3-0.1-5.8,0.3-8.1-0.5c-2.4-0.8-5.8-2.6-6.1-4.4c-0.6-3.5,3-4,5.9-4.3  c0.2,0,0.3,0,0.5,0c8.4-0.6,8.4-0.6,9.2-8.8c0.6-5.8,5-9.4,10.5-8.7c6.3,0.8,9.2,4.7,8,11.2c-0.3,1.4-0.5,2.9-0.9,4.9  c3.2,0.2,5.9,0.3,8.7,0.5c3.1,0.3,6.7,1.1,6.2,4.8c-0.3,1.8-3.8,3.3-6,4.5c-0.9,0.5-2.3,0.2-3.4,0.2c-6.8,0.1-6.9,0.1-7.2,6.7  c-0.7,16.7-1.4,33.5-1.9,50.2c-0.1,2.8,1,5.6,1.5,8.3c0.5,0.1,1.1,0.2,1.6,0.3c1.4-1.7,3.2-3.3,4.1-5.2c4.9-10.8,9.6-21.8,14.4-32.7  c1.8-4.1,3.3-8.4,5.8-12c10.1-14.7,28.3-14.6,38.7,0.1c0.5,0.7,1,1.3,1.7,2.4c3.2-5.2,6.6-10.8,13.4-7.8c5.4,2.4,1.8,7.5,1.6,12.5  c3.6-0.2,7.1-0.4,10.6-0.5c6.5-0.2,7.5,1.2,6.5,7.6c-1.5,9.2-3,18.3-3.8,27.6c-0.3,2.9,1.7,5.9,2.7,8.9c2-2.2,4.8-4,5.9-6.6  c4-9.4,7.7-19,11.1-28.7c1.2-3.4,2.7-5.5,6.3-4.7C1464.8,289.7,1464.5,292.9,1463.6,295.4z"></path>
<path class="st2" d="M637.2,228.9c0.3-2.2,0.3-4.4-0.1-6.6l5-1.6l-2.6-9.3l-6.5,2c-0.9-1.2-2-2.3-3.2-3.3c-0.1-0.1-0.2-0.1-0.3-0.2  l2.4-5.8l-8.8-4l-2.5,6c-2.4-0.4-4.9-0.4-7.4,0.1l-1.9-5.6l-9.3,2.7l2.4,7.1c-1,0.9-2,1.8-2.8,2.9c-0.3,0.4-0.6,0.7-0.8,1.1  l-6.1-2.8l-4.3,8.6l7,3.2c-0.2,1.5-0.2,3.1,0,4.6l-6.5,2.7l3.5,9l6.5-2.8c1,1.5,2.3,2.8,3.7,4l-2.2,6.6l9,3.4l2-5.9  c1.9,0.4,3.7,0.5,5.6,0.3l1.8,5l9.2-2.9l-1.9-5.3c1.8-1.2,3.4-2.6,4.8-4.3c0.1-0.1,0.2-0.2,0.2-0.4l3.9,2.2l5-8.2L637.2,228.9z   M627.3,234.8c-0.7,1.3-1.6,2.5-2.5,3.6c-0.9,1-1.8,1.9-3,2.4c-0.2,0-0.4,0.1-0.6,0.1c-1.8,0.2-3.5-0.4-5.1-1.1  c-3.3-1.5-6.2-3.5-8.3-6.5c-1.3-1.8-2-3.8-2.6-5.8c-0.7-2.9-1.5-5.8-2.2-8.6c-0.1-0.5,0.1-0.7,0.5-0.9c2.6-1.2,5.3-2.3,8-3.1  c0.4-0.1,0.8-0.2,1.2-0.4c1.1-0.3,2.2-0.6,3.3-0.8c1.4-0.2,2.8-0.5,4.2-0.8c2-0.3,4.1-0.5,6.1-0.6c0.5,0,0.7,0.1,0.8,0.6  c0.7,2.8,1.4,5.6,2.1,8.4C630.7,226,629.8,230.6,627.3,234.8z"></path>
<g>
	<path class="st2" d="M616.5,221.5c-1.2,0.3-1.9,1.5-1.6,2.6c0.3,1.2,1.5,1.9,2.6,1.5c1.1-0.3,1.8-1.4,1.5-2.6   C618.8,221.9,617.6,221.2,616.5,221.5z"></path>
	<path class="st2" d="M623.7,217.3c-0.1-0.4-0.4-0.4-0.7-0.4c-1.9,0.1-3.7,0.4-5.6,0.7c-3.1,0.6-6,1.6-8.8,2.9   c-0.3,0.1-0.4,0.3-0.3,0.7c0.2,0.8,0.4,1.6,0.6,2.4c0,0,0,0,0,0c0.1,0.4,0.2,0.8,0.3,1.1c1.4,5.7,5.2,9.2,10.6,11.1   c0.3,0.1,0.6,0.1,0.8-0.2c2.7-3.1,4.6-6.6,4.6-10.9C625.1,222.3,624.3,219.9,623.7,217.3z M622.4,228.5c-0.3,0.9-0.6,1.8-1.2,2.6   c-0.8-2.1-0.9-3.1,0.5-4.3c0.3-0.2,0.1-1.4-0.1-1.6c-0.2-0.1-0.3,0-0.4,0.1c-2.1,1.4-4.4,2-6.9,1.8c-0.3,0-0.5,0.1-0.4,0.4   c0.1,0.7,0.3,1.2,1.1,1.3c0.9,0.1,1.4,0.8,1.6,1.6c0.2,0.6,0.3,1.1,0.4,1.7c-0.3,0.1-0.5-0.1-0.6-0.2c-2.5-1.6-4-4-4.9-6.8   c-0.3-0.8-0.4-1.7-0.7-2.5c-0.1-0.4,0-0.6,0.3-0.7c3.3-1.3,6.7-2.2,10.2-2.6c0.3,0,0.5,0,0.6,0.3   C622.8,222.6,623.3,225.5,622.4,228.5z"></path>
</g>
<g id="Iemwsl_00000165931314540728410960000002461464634475552422_">
	
		<image style="overflow:visible;" width="900" height="900" id="Iemwsl_00000101814767745365117930000016618523387080711315_" xlink:href="9612CE3A19AA280F.jpg" transform="matrix(1 0 0 1 1000.5641 -749.2836)">
	</image>
</g>
<path class="st2" d="M594,252.3c0-0.1,0-0.3-0.1-0.4l4.4-0.9l-1.7-9.5l-5.7,1.2c-1.2-1.9-2.7-3.5-4.4-4.9l2.7-4.5l-8.1-5.3l-3.5,5.8  c-1.5-0.3-3-0.4-4.6-0.3c-0.1,0-0.2,0-0.4,0.1l-2-6l-9.2,2.8l2.1,6.1c-2.1,1.3-3.9,3-5.4,5l-5.1-2.9l-5.1,8.2l6.5,3.8  c-0.2,1.3-0.3,2.7-0.2,4c0,0.5,0.1,0.9,0.2,1.4l-6.4,1.9l2.5,9.3l7.4-2.2c0.9,1.3,1.9,2.5,3.1,3.5l-3.1,6.3l8.6,4.5l3.1-6.4  c1.8,0.4,3.6,0.6,5.4,0.6l2.7,6.5l9-3.4l-2.4-5.8c1.6-1,3.1-2.1,4.4-3.5l4.7,2.6l5-8.3l-4.9-2.8C593.9,256.6,594.2,254.5,594,252.3z   M570.4,261.4c-1.8,1-3.5,2.1-5.2,3.1c-0.2,0.1-0.4,0.3-0.6,0.2c-0.3-0.2-0.1-0.4-0.1-0.6c0.1-0.8,0.3-1.7,0.4-2.6  c-0.9,0.1-1.8,0.1-2.6,0.2c-0.2,0-0.4,0.1-0.6-0.1c-0.1-0.2,0.1-0.4,0.2-0.6c1.3-1.7,2.6-3.4,3.9-5.1c0.2-0.3,0.5-0.4,0.8-0.5  c2-0.5,3.9-1.2,5.8-1.8c0.7-0.2,1.4-0.4,2.2-0.7c-1.1,2.5-2.2,4.8-3.2,7.2C571.3,260.7,571,261.1,570.4,261.4z M589,254.1  c-4,2-7.9,3.9-11.9,5.9c-1,0.5-2,1-3,1.5c-0.3,0.2-0.6,0.3-1,0c-0.3-0.3-0.3-0.7-0.2-1.1c1.4-3.2,2.8-6.4,4.2-9.6  c0-0.1,0.1-0.2,0.1-0.4c-3.5,1.1-6.8,2.2-10.2,3.3c-0.4,0.1-0.8,0.2-1.1-0.2c-0.3-0.4-0.1-0.7,0.1-1.1c2.9-4.7,5.9-9.4,8.8-14.1  c0.4-0.6,0.6-0.7,1.1-0.1c0.5,0.5,0.9,1.1,1.5,1.6c0.5,0.5,0.5,0.9,0.1,1.4c-1.4,2.1-2.9,4.3-4.3,6.4c-0.1,0.1-0.1,0.2-0.2,0.4  c0.8-0.2,1.5-0.5,2.1-0.7c2.2-0.7,4.4-1.4,6.6-2.1c0.4-0.1,0.8-0.2,1.1,0.2c0.3,0.4,0.2,0.7,0,1.1c-1.1,2.6-2.3,5.1-3.4,7.7  c-0.1,0.2-0.1,0.3-0.3,0.7c1-0.5,1.9-1,2.7-1.4c1.5-0.8,3-1.6,4.5-2.4c0.6-0.3,1-0.3,1.4,0.3c0.4,0.6,0.9,1,1.4,1.6  C589.7,253.6,589.7,253.8,589,254.1z"></path>
</svg>